<?xml version='1.0' encoding='utf-8'?>
<svg xmlns="http://www.w3.org/2000/svg" xmlns:ns1="http://sodipodi.sourceforge.net/DTD/sodipodi-0.dtd" xmlns:ns2="http://www.inkscape.org/namespaces/inkscape" width="10.938mm" height="10.938mm" viewBox="0 0 10.938 10.938"><rect x="0" y="0" width="10.9375" height="10.9375" fill="#ffffff" /><g transform="translate(-138.729,-77.219)"><path ns1:arc-type="arc" style="fill:none;fill-opacity:1;stroke:#000000;stroke-width:0.265;stroke-linecap:round;stroke-linejoin:miter;stroke-miterlimit:4;stroke-dasharray:none;stroke-dashoffset:0;stroke-opacity:1" id="path6265-5" ns1:type="arc" ns1:cx="-81.364594" ns1:cy="142.87486" ns1:rx="0.66145831" ns1:ry="0.66145831" ns1:start="0" ns1:end="3.1415927" ns1:open="true" d="m -80.703135,142.87486 a 0.66145831,0.66145831 0 0 1 -0.330729,0.57284 0.66145831,0.66145831 0 0 1 -0.661459,0 0.66145831,0.66145831 0 0 1 -0.330729,-0.57284" transform="rotate(-90)" />
      <path ns1:arc-type="arc" style="fill:none;fill-opacity:1;stroke:#000000;stroke-width:0.265;stroke-linecap:round;stroke-linejoin:miter;stroke-miterlimit:4;stroke-dasharray:none;stroke-dashoffset:0;stroke-opacity:1" id="path6265-2-4" ns1:type="arc" ns1:cx="-82.687515" ns1:cy="142.87486" ns1:rx="0.66145831" ns1:ry="0.66145831" ns1:start="0" ns1:end="3.1415927" ns1:open="true" d="m -82.026057,142.87486 a 0.66145831,0.66145831 0 0 1 -0.330729,0.57284 0.66145831,0.66145831 0 0 1 -0.661458,0 0.66145831,0.66145831 0 0 1 -0.33073,-0.57284" transform="rotate(-90)" />
      <path ns1:arc-type="arc" style="fill:none;fill-opacity:1;stroke:#000000;stroke-width:0.265;stroke-linecap:round;stroke-linejoin:miter;stroke-miterlimit:4;stroke-dasharray:none;stroke-dashoffset:0;stroke-opacity:1" id="path6265-7-7" ns1:type="arc" ns1:cx="-84.010422" ns1:cy="142.87486" ns1:rx="0.66145831" ns1:ry="0.66145831" ns1:start="0" ns1:end="3.1415927" ns1:open="true" d="m -83.348963,142.87486 a 0.66145831,0.66145831 0 0 1 -0.33073,0.57284 0.66145831,0.66145831 0 0 1 -0.661458,0 0.66145831,0.66145831 0 0 1 -0.330729,-0.57284" transform="rotate(-90)" />
      <path style="fill:none;stroke:#000000;stroke-width:0.264583px;stroke-linecap:round;stroke-linejoin:miter;stroke-opacity:1" d="m 142.87501,80.041655 v 0.52917" id="path6292-6" ns2:connector-curvature="0" />
      <path style="fill:none;stroke:#000000;stroke-width:0.264583px;stroke-linecap:round;stroke-linejoin:miter;stroke-opacity:1" d="m 142.87501,85.333325 v -0.52917" id="path6294-5" ns2:connector-curvature="0" />
      <path style="fill:none;stroke:#000000;stroke-width:0.264583px;stroke-linecap:butt;stroke-linejoin:miter;stroke-opacity:1" d="m 142.87501,84.804155 v -0.26458" id="path6296-6" ns2:connector-curvature="0" />
      <path style="fill:none;stroke:#000000;stroke-width:0.264583px;stroke-linecap:butt;stroke-linejoin:miter;stroke-opacity:1" d="m 142.87501,80.835405 v -0.26458" id="path6298-9" ns2:connector-curvature="0" />
      <path ns1:arc-type="arc" style="fill:none;fill-opacity:1;stroke:#000000;stroke-width:0.265;stroke-linecap:round;stroke-linejoin:miter;stroke-miterlimit:4;stroke-dasharray:none;stroke-dashoffset:0;stroke-opacity:1" id="path6265-5-3" ns1:type="arc" ns1:cx="84.010391" ns1:cy="-145.52095" ns1:rx="0.66145831" ns1:ry="0.66145831" ns1:start="0" ns1:end="3.1415927" ns1:open="true" d="m 84.67185,-145.52095 a 0.66145831,0.66145831 0 0 1 -0.33073,0.57284 0.66145831,0.66145831 0 0 1 -0.661458,0 0.66145831,0.66145831 0 0 1 -0.330729,-0.57284" transform="rotate(90)" />
      <path ns1:arc-type="arc" style="fill:none;fill-opacity:1;stroke:#000000;stroke-width:0.265;stroke-linecap:round;stroke-linejoin:miter;stroke-miterlimit:4;stroke-dasharray:none;stroke-dashoffset:0;stroke-opacity:1" id="path6265-2-4-7" ns1:type="arc" ns1:cx="82.687469" ns1:cy="-145.52095" ns1:rx="0.66145831" ns1:ry="0.66145831" ns1:start="0" ns1:end="3.1415927" ns1:open="true" d="m 83.348928,-145.52095 a 0.66145831,0.66145831 0 0 1 -0.330729,0.57284 0.66145831,0.66145831 0 0 1 -0.661459,0 0.66145831,0.66145831 0 0 1 -0.330729,-0.57284" transform="rotate(90)" />
      <path ns1:arc-type="arc" style="fill:none;fill-opacity:1;stroke:#000000;stroke-width:0.265;stroke-linecap:round;stroke-linejoin:miter;stroke-miterlimit:4;stroke-dasharray:none;stroke-dashoffset:0;stroke-opacity:1" id="path6265-7-7-4" ns1:type="arc" ns1:cx="81.364555" ns1:cy="-145.52095" ns1:rx="0.66145831" ns1:ry="0.66145831" ns1:start="0" ns1:end="3.1415927" ns1:open="true" d="m 82.026014,-145.52095 a 0.66145831,0.66145831 0 0 1 -0.330729,0.57284 0.66145831,0.66145831 0 0 1 -0.661459,0 0.66145831,0.66145831 0 0 1 -0.330729,-0.57284" transform="rotate(90)" />
      <path style="fill:none;stroke:#000000;stroke-width:0.264583px;stroke-linecap:round;stroke-linejoin:miter;stroke-opacity:1" d="m 145.52084,85.333323 v -0.52917" id="path6292-6-5" ns2:connector-curvature="0" />
      <path style="fill:none;stroke:#000000;stroke-width:0.264583px;stroke-linecap:round;stroke-linejoin:miter;stroke-opacity:1" d="m 145.52084,80.041653 v 0.52917" id="path6294-5-2" ns2:connector-curvature="0" />
      <path style="fill:none;stroke:#000000;stroke-width:0.264583px;stroke-linecap:butt;stroke-linejoin:miter;stroke-opacity:1" d="m 145.52084,80.570823 v 0.26458" id="path6296-6-5" ns2:connector-curvature="0" />
      <path style="fill:none;stroke:#000000;stroke-width:0.264583px;stroke-linecap:butt;stroke-linejoin:miter;stroke-opacity:1" d="m 145.52084,84.539573 v 0.26458" id="path6298-9-4" ns2:connector-curvature="0" />
      <path style="fill:none;stroke:#000000;stroke-width:0.264583px;stroke-linecap:round;stroke-linejoin:miter;stroke-opacity:1" d="m 140.22917,86.65624 h 7.9375" id="path5633-92-7" ns2:connector-curvature="0" />
      <path style="fill:none;stroke:#000000;stroke-width:0.264583px;stroke-linecap:round;stroke-linejoin:miter;stroke-opacity:1" d="m 148.16667,78.71874 h -7.9375" id="path5635-28-8" ns2:connector-curvature="0" />
      <path style="fill:none;stroke:#000000;stroke-width:0.264583px;stroke-linecap:round;stroke-linejoin:miter;stroke-opacity:1" d="m 148.16667,86.65624 v -7.9375" id="path5637-97-68" ns2:connector-curvature="0" />
      <path style="fill:none;stroke:#000000;stroke-width:0.264583px;stroke-linecap:round;stroke-linejoin:miter;stroke-opacity:1" d="m 140.22917,86.65624 v -7.9375" id="path5639-36-84" ns2:connector-curvature="0" />
      </g></svg>